<svg class="diagram-root" style="background: #f5f6f6" xmlns="http://www.w3.org/2000/svg" xmlns:xlink="http://www.w3.org/1999/xlink"><style>.diagram-root { font-family: "Helvetica Neue", sans-serif; font-size: 12px; } .t { overflow: visible; } .t-bg { y: 40; fill: #fff;   } .th { fill: #005aa0;   } .tht { fill: #fff; font-size: 14px;  } .tf { fill: #323c46; overflow: visible; } .tf.pk { fill: #005aa0; font-weight: bold; } .tf.fk { font-weight: bold; } .ty { fill: #adb1b5; font-weight: normal; text-anchor: end; } .r { fill: transparent; stroke: #c3c3c3; stroke-width: 1; } .l { stroke: 1; } .i { fill: #c2c7ce; stroke: #c2c7ce; } .i.ix { fill: #afb3b6; stroke: #000; } .fa { fill: transparent; overflow: visible; } .fa .bg.hover { fill: #f7f7f7; } .c { cy: 12; r: 4; stroke: #d2d2dc; fill: #d2d2dc; } .hr { fill: transparent; stroke: #323c46; stroke-opacity: 0.035; stroke-width: 13; } .dc { stroke: #fa5a3c; fill: #fa5a3c; } .x { stroke: white; stroke-width: 1; } .hl .th { fill: #1b9bff; } .hl .tht {  } .fhl .bg { fill: #e7f4ff; } .fhls .bg {  } .r.hl { stroke: #1b9bff; } .dim { opacity: 0.25; }</style><g class="drawing-wrapper" transform="translate(2, 18) scale(1,1)"><g class="rs"><path d="M 586.18 85 m -1, 0 a 1,1 0 1,0 2,0 a 1,1 0 1,0 -2,0 M 586.18 85 m -0.5, 0 a 0.5,0.5 0 1,0 1,0 a 0.5,0.5 0 1,0 -1,0  M586.18 85 L586.18 85 598.18 85 M592.18 91 L592.18 91 592.18 79 M598.18 85 C 648.18 85, 655.1879999999999 303, 586.5 303 M 574.5 303 m -1, 0 a 1,1 0 1,0 2,0 a 1,1 0 1,0 -2,0 M 574.5 303 m -0.5, 0 a 0.5,0.5 0 1,0 1,0 a 0.5,0.5 0 1,0 -1,0  M574.5 303 L574.5 303 586.5 303 M580.5 309 L580.5 309 580.5 297" id="h1139284389" class="r"></path><path d="M 391 110 m -1, 0 a 1,1 0 1,0 2,0 a 1,1 0 1,0 -2,0 M 391 110 m -0.5, 0 a 0.5,0.5 0 1,0 1,0 a 0.5,0.5 0 1,0 -1,0  M391 110 L391 110 379 110 M385 116 L385 116 385 104 M379 110 Q 343.54 110, 308.09 98.5 T 237.18 87 M 225.18 87 m -1, 0 a 1,1 0 1,0 2,0 a 1,1 0 1,0 -2,0 M 225.18 87 m -0.5, 0 a 0.5,0.5 0 1,0 1,0 a 0.5,0.5 0 1,0 -1,0  M225.18 87 L225.18 87 237.18 87 M231.18 93 L231.18 93 231.18 81" id="h1607168654" class="r"></path><path d="M 254.18 289 m -1, 0 a 1,1 0 1,0 2,0 a 1,1 0 1,0 -2,0 M 254.18 289 m -0.5, 0 a 0.5,0.5 0 1,0 1,0 a 0.5,0.5 0 1,0 -1,0  M254.18 289 L254.18 289 266.18 289 M260.18 295 L260.18 295 260.18 283 M266.18 289 Q 294.39 289, 322.59 199.5 T 379 110 M 391 110 m -1, 0 a 1,1 0 1,0 2,0 a 1,1 0 1,0 -2,0 M 391 110 m -0.5, 0 a 0.5,0.5 0 1,0 1,0 a 0.5,0.5 0 1,0 -1,0  M391 110 L391 110 379 110 M385 116 L385 116 385 104" id="h3335357949" class="r"></path><path d="M 254.18 314 m -1, 0 a 1,1 0 1,0 2,0 a 1,1 0 1,0 -2,0 M 254.18 314 m -0.5, 0 a 0.5,0.5 0 1,0 1,0 a 0.5,0.5 0 1,0 -1,0  M254.18 314 L254.18 314 266.18 314 M260.18 320 L260.18 320 260.18 308 M266.18 314 Q 291.14 314, 316.09 308.5 T 366 303 M 378 303 m -1, 0 a 1,1 0 1,0 2,0 a 1,1 0 1,0 -2,0 M 378 303 m -0.5, 0 a 0.5,0.5 0 1,0 1,0 a 0.5,0.5 0 1,0 -1,0  M378 303 L378 303 366 303 M372 309 L372 309 372 297" id="h2286254435" class="r"></path><path d="M 574.5 328 m -1, 0 a 1,1 0 1,0 2,0 a 1,1 0 1,0 -2,0 M 574.5 328 m -0.5, 0 a 0.5,0.5 0 1,0 1,0 a 0.5,0.5 0 1,0 -1,0  M574.5 328 L574.5 328 586.5 328 M580.5 334 L580.5 334 580.5 322 M586.5 328 Q 629.38 328, 672.25 308 T 758 288 M 770 288 m -1, 0 a 1,1 0 1,0 2,0 a 1,1 0 1,0 -2,0 M 770 288 m -0.5, 0 a 0.5,0.5 0 1,0 1,0 a 0.5,0.5 0 1,0 -1,0  M770 288 L770 288 758 288 M764 294 L764 294 764 282" id="h1537058300" class="r"></path><path d="M 773 88 m -1, 0 a 1,1 0 1,0 2,0 a 1,1 0 1,0 -2,0 M 773 88 m -0.5, 0 a 0.5,0.5 0 1,0 1,0 a 0.5,0.5 0 1,0 -1,0  M773 88 L773 88 761 88 M767 94 L767 94 767 82 M761 88 Q 717.38 88, 673.75 195.5 T 586.5 303 M 574.5 303 m -1, 0 a 1,1 0 1,0 2,0 a 1,1 0 1,0 -2,0 M 574.5 303 m -0.5, 0 a 0.5,0.5 0 1,0 1,0 a 0.5,0.5 0 1,0 -1,0  M574.5 303 L574.5 303 586.5 303 M580.5 309 L580.5 309 580.5 297" id="h3177548053" class="r"></path></g><g class="hrs"></g><g class="ts"><svg width="195.18" height="100" x="30" y="30" id="h475896179" class="t"><rect height="40" width="195.18" class="th"></rect><text x="13" y="25" class="tht">departments</text><rect height="60" width="195.18" class="t-bg"></rect><text x="13" y="61" class="tf pk">dept_no<tspan x="182.18" class="ty">VARCHAR(255)</tspan></text><path d="M7,14A2,2 0 0,1 5,12A2,2 0 0,1 7,10A2,2 0 0,1 9,12A2,2 0 0,1 7,14M12.65,10C11.83,7.67 9.61,6 7, 6A6, 6 0 0, 0 1, 12A6, 6 0 0, 0 7, 18C9.61, 18 11.83, 16.33 12.65, 14H17V18H21V14H23V10H12.65Z" class="i pk" transform="translate(76.381171875, 48) scale(0.65)"></path><text x="13" y="86" class="tf">dept_name<tspan x="182.18" class="ty">VARCHAR(255)</tspan></text></svg><svg width="196.5" height="225" x="378" y="246" id="h1639608377" class="t"><rect height="40" width="196.5" class="th"></rect><text x="13" y="25" class="tht">employees</text><rect height="185" width="196.5" class="t-bg"></rect><text x="13" y="61" class="tf pk">emp_no<tspan x="183.5" class="ty">INTEGER</tspan></text><path d="M7,14A2,2 0 0,1 5,12A2,2 0 0,1 7,10A2,2 0 0,1 9,12A2,2 0 0,1 7,14M12.65,10C11.83,7.67 9.61,6 7, 6A6, 6 0 0, 0 1, 12A6, 6 0 0, 0 7, 18C9.61, 18 11.83, 16.33 12.65, 14H17V18H21V14H23V10H12.65Z" class="i pk" transform="translate(110.162109375, 48) scale(0.65)"></path><text x="13" y="86" class="tf fk">emp_title_id<tspan x="183.5" class="ty">VARCHAR(255)</tspan></text><text x="13" y="111" class="tf">birth_date<tspan x="183.5" class="ty">TIMESTAMP</tspan></text><text x="13" y="136" class="tf">first_name<tspan x="183.5" class="ty">VARCHAR(255)</tspan></text><text x="13" y="161" class="tf">last_name<tspan x="183.5" class="ty">VARCHAR(255)</tspan></text><text x="13" y="186" class="tf">sex<tspan x="183.5" class="ty">VARCHAR(255)</tspan></text><text x="13" y="211" class="tf">hire_date<tspan x="183.5" class="ty">TIMESTAMP</tspan></text></svg><svg width="175.18" height="100" x="79" y="232" id="h1676682957" class="t"><rect height="40" width="175.18" class="th"></rect><text x="13" y="25" class="tht">dept_manager</text><rect height="60" width="175.18" class="t-bg"></rect><text x="13" y="61" class="tf fk">dept_no<tspan x="162.18" class="ty">VARCHAR(255)</tspan></text><text x="13" y="86" class="tf pk">emp_no<tspan x="162.18" class="ty">INTEGER</tspan></text><path d="M7,14A2,2 0 0,1 5,12A2,2 0 0,1 7,10A2,2 0 0,1 9,12A2,2 0 0,1 7,14M12.65,10C11.83,7.67 9.61,6 7, 6A6, 6 0 0, 0 1, 12A6, 6 0 0, 0 7, 18C9.61, 18 11.83, 16.33 12.65, 14H17V18H21V14H23V10H12.65Z" class="i pk" transform="translate(88.842109375, 73) scale(0.65)"></path></svg><svg width="195.18" height="100" x="391" y="28" id="h1090417462" class="t"><rect height="40" width="195.18" class="th"></rect><text x="13" y="25" class="tht">dept_emp</text><rect height="60" width="195.18" class="t-bg"></rect><text x="13" y="61" class="tf pk">emp_no<tspan x="182.18" class="ty">INTEGER</tspan></text><path d="M7,14A2,2 0 0,1 5,12A2,2 0 0,1 7,10A2,2 0 0,1 9,12A2,2 0 0,1 7,14M12.65,10C11.83,7.67 9.61,6 7, 6A6, 6 0 0, 0 1, 12A6, 6 0 0, 0 7, 18C9.61, 18 11.83, 16.33 12.65, 14H17V18H21V14H23V10H12.65Z" class="i pk" transform="translate(108.842109375, 48) scale(0.65)"></path><text x="13" y="86" class="tf pk">dept_no<tspan x="182.18" class="ty">VARCHAR(255)</tspan></text><path d="M7,14A2,2 0 0,1 5,12A2,2 0 0,1 7,10A2,2 0 0,1 9,12A2,2 0 0,1 7,14M12.65,10C11.83,7.67 9.61,6 7, 6A6, 6 0 0, 0 1, 12A6, 6 0 0, 0 7, 18C9.61, 18 11.83, 16.33 12.65, 14H17V18H21V14H23V10H12.65Z" class="i pk" transform="translate(76.381171875, 73) scale(0.65)"></path></svg><svg width="162.7" height="100" x="773" y="31" id="h2472833127" class="t"><rect height="40" width="162.7" class="th"></rect><text x="13" y="25" class="tht">salaries</text><rect height="60" width="162.7" class="t-bg"></rect><text x="13" y="61" class="tf pk">emp_no<tspan x="149.7" class="ty">INTEGER</tspan></text><path d="M7,14A2,2 0 0,1 5,12A2,2 0 0,1 7,10A2,2 0 0,1 9,12A2,2 0 0,1 7,14M12.65,10C11.83,7.67 9.61,6 7, 6A6, 6 0 0, 0 1, 12A6, 6 0 0, 0 7, 18C9.61, 18 11.83, 16.33 12.65, 14H17V18H21V14H23V10H12.65Z" class="i pk" transform="translate(76.36210937499999, 48) scale(0.65)"></path><text x="13" y="86" class="tf">salary<tspan x="149.7" class="ty">INTEGER</tspan></text></svg><svg width="186.49" height="100" x="770" y="231" id="h311790747" class="t"><rect height="40" width="186.49" class="th"></rect><text x="13" y="25" class="tht">titles</text><rect height="60" width="186.49" class="t-bg"></rect><text x="13" y="61" class="tf pk">title_id<tspan x="173.49" class="ty">VARCHAR(255)</tspan></text><path d="M7,14A2,2 0 0,1 5,12A2,2 0 0,1 7,10A2,2 0 0,1 9,12A2,2 0 0,1 7,14M12.65,10C11.83,7.67 9.61,6 7, 6A6, 6 0 0, 0 1, 12A6, 6 0 0, 0 7, 18C9.61, 18 11.83, 16.33 12.65, 14H17V18H21V14H23V10H12.65Z" class="i pk" transform="translate(67.69117187500001, 48) scale(0.65)"></path><text x="13" y="86" class="tf">title<tspan x="173.49" class="ty">VARCHAR(255)</tspan></text></svg></g></g><text class="qdbd-link" x="10" y="20">www.quickdatabasediagrams.com</text></svg>